<svg xmlns="http://www.w3.org/2000/svg" version="1.1" xmlns:xlink="http://www.w3.org/1999/xlink" xmlns:svgjs="http://svgjs.com/svgjs" width="300" height="560" preserveAspectRatio="none" viewBox="0 0 300 560"><g mask="url(&quot;#SvgjsMask1015&quot;)" fill="none"><rect width="300" height="560" x="0" y="0" fill="rgba(217, 235, 255, 1)"></rect><path d="M0,223.449C49.765,235.447,107.789,262.377,150.121,233.593C192.642,204.68,189.629,140.724,196.584,89.777C201.968,50.343,188.38,13.014,185.655,-26.693C182.646,-70.542,200.181,-116.835,179.737,-155.743C157.667,-197.746,118.067,-234.27,71.584,-243.791C25.799,-253.169,-17.03,-222.887,-60.159,-204.882C-98.602,-188.833,-136.631,-173.295,-166.597,-144.357C-198.621,-113.431,-235.031,-78.554,-237.03,-34.08C-239.011,9.991,-199.97,43.216,-176.712,80.702C-156.57,113.167,-139.563,146.911,-109.843,170.919C-77.618,196.95,-40.271,213.74,0,223.449" fill="#7bb9ff"></path><path d="M300 807.475C347.574 812.717 401.18899999999996 804.494 436.053 771.703 470.033 739.744 456.557 682.759 477.12 640.888 498.599 597.151 552.406 571.243 558.252 522.869 564.4590000000001 471.515 550.7090000000001 409.373 508.757 379.111 466.082 348.328 406.499 380.80899999999997 354.135 375.632 314.39 371.702 278.872 349.301 239.05700000000002 352.446 192.81900000000002 356.098 143.764 363.663 109.52699999999999 394.954 73.904 427.512 53.764999999999986 476.029 51.116000000000014 524.216 48.56399999999999 570.624 71.51499999999999 613.554 95.31200000000001 653.478 117.1 690.032 147.937 718.117 181.94299999999998 743.701 218.423 771.1469999999999 254.623 802.475 300 807.475" fill="#ffffff"></path></g><defs><mask id="SvgjsMask1015"><rect width="300" height="560" fill="#ffffff"></rect></mask></defs></svg>