<svg xmlns="http://www.w3.org/2000/svg" version="1.1" xmlns:xlink="http://www.w3.org/1999/xlink" xmlns:svgjs="http://svgjs.com/svgjs" width="360" height="560" preserveAspectRatio="none" viewBox="0 0 360 560"><g mask="url(&quot;#SvgjsMask1026&quot;)" fill="none"><rect width="360" height="560" x="0" y="0" fill="url(#SvgjsLinearGradient1027)"></rect><circle r="5.91" cx="303.62" cy="152.94" filter="url(#SvgjsFilter1028)" fill="rgba(51, 121, 194, 0.58)"></circle><circle r="4.555" cx="361.665" cy="487.995" filter="url(#SvgjsFilter1028)" fill="rgba(51, 121, 194, 0.58)"></circle><circle r="3.005" cx="75.285" cy="419.485" filter="url(#SvgjsFilter1028)" fill="rgba(51, 121, 194, 0.58)"></circle><circle r="3.12" cx="186.72" cy="527.46" filter="url(#SvgjsFilter1028)" fill="rgba(51, 121, 194, 0.58)"></circle><circle r="4.875" cx="50.175" cy="311.335" filter="url(#SvgjsFilter1028)" fill="rgba(51, 121, 194, 0.58)"></circle><circle r="4.69" cx="235.26" cy="540.35" filter="url(#SvgjsFilter1028)" fill="rgba(51, 121, 194, 0.58)"></circle><circle r="5.855" cx="132.115" cy="398.345" filter="url(#SvgjsFilter1028)" fill="rgba(51, 121, 194, 0.58)"></circle><circle r="5.83" cx="92.63" cy="336.65999999999997" filter="url(#SvgjsFilter1028)" fill="rgba(51, 121, 194, 0.58)"></circle><circle r="3.745" cx="350.095" cy="260.245" filter="url(#SvgjsFilter1028)" fill="rgba(51, 121, 194, 0.58)"></circle><circle r="3.66" cx="156.78" cy="279.18" filter="url(#SvgjsFilter1028)" fill="rgba(51, 121, 194, 0.58)"></circle><circle r="4.9" cx="224.58" cy="255.46" filter="url(#SvgjsFilter1028)" fill="rgba(51, 121, 194, 0.58)"></circle><circle r="3.515" cx="122.765" cy="325.215" filter="url(#SvgjsFilter1028)" fill="rgba(51, 121, 194, 0.58)"></circle><circle r="4.14" cx="129.35" cy="51.93" filter="url(#SvgjsFilter1028)" fill="rgba(51, 121, 194, 0.58)"></circle><circle r="3.355" cx="245.86499999999998" cy="194.33499999999998" filter="url(#SvgjsFilter1028)" fill="rgba(51, 121, 194, 0.58)"></circle><circle r="5.375" cx="8.975" cy="98.555" filter="url(#SvgjsFilter1028)" fill="rgba(51, 121, 194, 0.58)"></circle><circle r="4.09" cx="259.96999999999997" cy="271.90999999999997" filter="url(#SvgjsFilter1028)" fill="rgba(51, 121, 194, 0.58)"></circle><circle r="4.59" cx="227.64000000000001" cy="425" filter="url(#SvgjsFilter1028)" fill="rgba(51, 121, 194, 0.58)"></circle><circle r="5.53" cx="229.46" cy="119.62" filter="url(#SvgjsFilter1028)" fill="rgba(51, 121, 194, 0.58)"></circle><circle r="3.74" cx="27.71" cy="370.57" filter="url(#SvgjsFilter1028)" fill="rgba(51, 121, 194, 0.58)"></circle><circle r="4.915" cx="145.39499999999998" cy="387.055" filter="url(#SvgjsFilter1028)" fill="rgba(51, 121, 194, 0.58)"></circle><path d="M254.8 442.9L248 446.8 247.8 441.6C247.8 441 247.3 440.4 246.5 440.3 245.9 440.5 245.3 441 245.2 441.6L245.4 448.5 239.1 452.1 239 438C238.9 437.2 238.4 436.6 237.7 436.8 236.9 436.6 236.3 437.1 236.4 438L236.5 453.5 230.9 456.9 217.7 449.5 217.5 443.7 231.8 435.5C232 435.3 232.1 435 232.2 434.8 232.3 434.6 232.3 434.1 232.2 433.7 231.8 432.9 231.1 432.8 230.5 433.3L217.4 440.8 217.4 433.7 224 429.6C224.2 429.8 224.3 429.6 224.4 429.3 224.7 428.9 224.7 428.3 224.4 427.9 224.1 427.4 223.3 427.3 222.6 427.5L217.3 430.8 217.2 421.9C217.2 421.3 216.7 420.7 215.9 420.6 215.3 420.8 214.7 421.3 214.6 421.9L214.8 430.2 210.3 427.7C209.6 427.3 208.8 427.7 208.6 428.1 208.2 428.8 208.3 429.7 208.9 430L214.8 433.3 214.8 440.5 202.6 433.6C202 433.3 201.3 433.5 200.9 434.1 200.6 434.8 200.7 435.5 201.4 435.8L214.9 443.4 215.1 449.5 201.9 457.2 196.9 454.4 196.7 438.6C196.8 437.8 196.1 437.1 195.4 437.3 194.6 437.2 194.3 437.8 194.1 438.6L194.3 453 188 449.5 188 442.3C188.1 441.8 187.3 441.1 186.8 441S185.5 441.8 185.4 442.5L185.4 448 177.8 443.7C177.2 443.4 176.4 443.8 176 444.4 175.8 444.9 175.9 445.8 176.5 446.1L184.1 450.4 179.3 453.4C178.8 453.7 178.5 454.3 178.9 455.1 179.2 455.6 180.2 455.9 180.6 455.6L186.7 451.8 193 455.4 180.6 462.7C180 463.2 179.7 463.9 180.1 464.7 180.4 465.1 181.4 465.4 181.8 465.1L195.6 456.8 200.6 459.6 200.9 474.9 195.5 477.9 182 470.3C181.4 470 180.7 470.2 180.3 470.8 180 471.5 180 472.4 180.7 472.7L192.9 479.5 186.8 483.3 180.9 480C180.3 479.6 179.6 479.8 179.2 480.5 178.9 481.1 179 481.8 179.7 482.2L184.3 484.7 177 488.9C176.6 489.2 176.3 490.2 176.6 490.7 177.1 491.3 177.8 491.6 178.4 491.1L185.9 486.8 186 492.8C186.2 493.5 186.7 494.1 187.3 494.1 187.8 494.1 188.3 493.8 188.5 493.4 188.5 493.4 188.6 493.2 188.6 492.8L188.6 485.1 194.7 481.4 195.1 496.5C194.9 497.2 195.4 497.8 196.3 497.8 196.7 497.7 197 497.6 197.3 497.1 197.4 496.9 197.5 496.7 197.6 496.5L197.2 480 202.2 477.1 215.5 484.5 215.5 491.1 202.2 499C201.4 499.4 201.2 500.2 201.8 500.8 202 501.5 202.7 501.6 203.5 501.2L215.6 494 215.8 501.2 209.8 504.8C209.4 505.1 209.2 505.8 209.4 506.5 209.9 507.1 210.6 507.5 211.2 506.9L215.8 504.4 215.9 512.2C215.8 512.9 216.4 513.3 217.2 513.5 217.6 513.4 218 513.1 218.3 512.6 218.3 512.6 218.4 512.4 218.5 512.2L218.3 503.8 223.8 506.9C224.2 507.1 225.1 507 225.5 506.4 225.8 505.7 225.4 504.9 225 504.7L218.3 500.9 218 493.7 231.3 501.1C231.9 501.5 232.7 501 233.1 500.4S233.3 499.1 232.6 498.7L218.1 490.5 218 484.5 231.2 476.8 236.9 480 237 496C237.2 496.7 237.7 497.3 238.5 497.4 238.8 497.3 239.3 497 239.5 496.6 239.6 496.4 239.8 496.1 239.7 495.8L239.5 481.4 245.8 484.9 246 492.2C245.9 492.8 246.5 493.3 247.2 493.5 247.9 493.3 248.5 492.8 248.5 492.2L248.4 486.4 255.3 490.3C255.7 490.5 256.8 490.3 257 489.8 257.4 489.2 257.1 488.2 256.6 487.9L249.7 484 254.6 481.4C254.7 481.1 254.9 480.9 255 480.7 255.2 480.3 255.3 479.7 255.2 479.4 254.6 478.8 253.9 478.6 253.2 478.8L247.1 482.6 240.8 479 253.2 471.7C254 471.3 254.1 470.5 253.8 470.1 253.4 469.3 252.6 469.1 252 469.3L238.2 477.6 232.5 474.4 232.3 459.1 237.4 456 252 464.2C252.6 464.5 253.3 464.4 253.7 463.7 254 463.1 253.8 462.4 253.2 462L240 454.6 246.3 451 253 454.8C253.4 455 254.4 454.7 254.8 454.1 255.2 453.4 254.8 452.6 254.3 452.4L248.9 449.3 256.1 445.1C256.2 444.9 256.2 444.9 256.4 444.7 256.6 444.2 256.6 443.7 256.5 443.3 256 442.8 255.2 442.6 254.8 442.9ZM229.9 472.9L229.9 474.6 228.6 475.3 217.9 481.6 216.7 482.3 215.4 481.6 204.7 475.6 203.4 474.9 203.4 473.5 203.2 461.1 203.2 459.6 204.5 458.7 215.1 452.6 216.5 451.7 217.8 452.4 228.4 458.4 229.7 459.1 229.6 460.8 229.9 472.9Z" fill="rgba(51, 121, 194, 0.58)"></path><path d="M76.3 240.2L73 220.6 77.4 214.8 78.4 221.4C78.4 222.1 79.1 222.5 79.8 222.5 80.3 222.3 80.9 221.6 80.7 221.1L79.4 212 83.5 206.1 86.3 212.7 83 221.4C83 221.4 82.9 221.6 82.9 221.6 82.9 222.1 83.3 222.6 83.8 222.9 84.5 223 85.1 222.8 85.4 222.1L87.8 215.8 90.6 222.4 83.7 240.9C83.7 240.9 83.4 241.2 83.4 241.2 83.4 241.7 83.8 242.2 84.3 242.5 85 242.8 85.8 242.4 85.9 241.7L92 225.5 95.7 233.4 93 240.6C93 240.6 93 240.6 93 240.9 92.9 241.4 93.1 241.9 93.6 242.2 94.3 242.3 95.1 242.1 95.4 241.4L97.2 236.6 99.8 242.3C100 243.1 100.7 243.2 101.3 243 102 242.8 102.3 242.1 101.9 241.3L99.5 235.6 104.1 237.5C104.8 237.6 105.6 237.4 105.7 236.7 106 236 105.8 235.4 105.1 235.1L97.8 232.4 94.4 224.5 110.8 230.7C111.2 231 112 230.6 112.4 229.9 112.4 229.4 112.2 228.6 111.5 228.3L93 221.4 90.1 214.8 96.4 217.2C97.1 217.5 97.6 217.1 98 216.4 98.3 215.9 97.8 215.1 97.4 214.8L88.7 211.7 85.6 205.1 92.8 205.8 98.6 212.9C99 213.5 99.8 213.6 100.3 213.1 100.8 212.9 100.9 211.9 100.5 211.4L96.3 206.2 103.4 206.9 115.9 222.5C116.3 223 117 223.1 117.6 222.6 118.1 222.2 118.2 221.5 117.8 220.9L106.9 207.3 115.3 208.1 120.2 214.2C120.7 214.7 121.4 214.8 121.9 214.3 122.5 213.9 122.6 213.1 122.1 212.6L119 208.5 125.2 209.2C126 209.2 126.5 208.8 126.6 208 126.7 207.3 126.2 206.8 125.5 206.7L119.3 206.1 123.1 202.9C123.7 202.5 123.7 201.8 123.3 201.2S122.1 200.6 121.6 201L115.8 205.7 107.2 204.8 120.5 193.9C121.1 193.5 121.1 192.7 120.7 192.2 120.3 191.6 119.5 191.6 119 192L103.7 204.5 96.5 203.7 101.7 199.5C102.2 199.1 102.3 198.3 101.9 197.8 101.4 197.2 100.7 197.1 100.1 197.6L93 203.4 86.1 202.7 90.2 197.1 99.3 195.5C99.9 195.3 100.4 194.6 100.2 194.1 100.1 193.3 99.6 193 98.9 193L92.2 194 96.3 188.4 115.9 185.2C116.7 185 117 184.5 117.1 183.8 116.9 183 116.2 182.7 115.7 182.7L98.4 185.4 103.6 178.4 111 177.2C111.7 177.3 112 176.5 112.1 175.8 111.9 175.3 111.2 174.7 110.5 174.9L105.6 175.6 109.2 170.5C109.7 170 109.5 169.3 108.8 168.7 108.4 168.4 107.6 168.6 107.3 169.1L103.5 174.2 102.8 169.1C102.6 168.3 101.9 168 101.4 168.2 100.6 168.1 100.3 168.6 100.3 169.1 100.3 169.3 100.3 169.3 100.2 169.6L101.5 177 96.3 183.9 93.5 166.9C93.6 166.1 92.9 165.8 92.1 165.8 91.6 165.9 91.3 166.4 91.3 166.9 91.2 167.2 91.2 167.2 91.2 167.2L94.2 187 90.1 192.6 89.1 186C88.9 185.2 88.4 184.9 87.7 184.8 87.2 185 86.6 185.5 86.6 185.9 86.5 186.2 86.5 186.2 86.5 186.4L88.1 195.6 84 201.2 81.1 194.9 84.3 186.2C84.6 185.5 84.2 184.7 83.7 184.4 83 184.3 82.2 184.5 82.1 185.2L79.7 191.5 76.6 185.2 83.8 166.4C84.1 165.9 83.7 165.1 83.2 164.8 82.5 164.8 81.7 164.9 81.4 165.7L75.2 181.8 71.8 173.9 74.5 167C74.8 166.2 74.4 165.4 73.7 165.4 73.2 165.1 72.4 165.2 72.1 166L70.4 170.8 67.7 165C67.5 164.5 66.8 164.2 66 164.3 65.7 164.6 65.4 165 65.4 165.5 65.4 165.5 65.4 165.8 65.3 166L68 171.8 63.2 170C62.7 169.8 61.9 170.2 61.6 170.6 61.6 170.9 61.6 170.9 61.6 170.9 61.5 171.6 62 172.2 62.4 172.2L69.4 174.9 73.1 182.8 56.7 176.6C56 176.6 55.5 176.8 55.2 177.5 55.2 177.5 55.1 177.7 55.1 177.7 55.1 178.2 55.3 178.7 56 179.1L74.5 186.2 77.4 192.5 71.1 190.1C70.4 190 69.6 190.2 69.5 191 69.3 190.9 69.3 191.2 69.3 191.2 69.2 191.7 69.7 192.2 70.1 192.5L78.8 195.7 81.7 202.2 74.7 201.5 68.9 194.4C68.5 193.9 67.5 193.8 67 194.2 66.7 194.7 66.6 195.4 66.8 195.9L71.3 201.1 64.1 200.4 51.6 185.1C51.2 184.6 50.4 184.5 49.9 185 49.3 185.4 49.3 186.1 49.7 186.7L60.6 200.1 51.9 199.2 47.3 193.4C46.8 192.9 46.1 192.8 45.5 193.3S44.9 194.5 45.4 195L48.5 198.8 42.3 198.2C41.5 198.1 41 198.6 40.9 199.3 40.8 200 41.3 200.6 42 200.7L48.2 201.3 44.4 204.7C44.1 204.9 43.8 205.1 43.8 205.3 43.8 205.6 44 206.1 44.2 206.4 44.6 206.9 45.4 207 45.9 206.6L51.7 201.7 60.4 202.5 47 213.7C46.7 213.9 46.4 214.1 46.4 214.4 46.4 214.6 46.6 215.1 46.8 215.4 47.2 216 48 216 48.5 215.6L63.8 202.9 71 203.6 65.6 207.8C65.3 208 65.2 208.5 65.2 208.8 65.2 209 65.2 209.3 65.4 209.6 65.8 210.1 66.8 210.2 67.1 209.7L74.5 204 81.4 204.7 77.3 210.5 68.2 211.8C67.6 212 67.1 212.5 67 213 67 213.2 67 213.2 67.3 213.2 67.2 214 67.9 214.6 68.7 214.4L75.3 213.3 71.2 219.2 51.3 222.1C50.8 222.3 50.5 222.8 50.5 223.3 50.5 223.5 50.5 223.5 50.5 223.5 50.6 224.3 51.1 224.9 51.8 224.7L69.1 221.9 63.9 228.9 56.5 230.2C55.8 230.3 55.5 230.8 55.4 231.3 55.4 231.3 55.4 231.5 55.4 231.5 55.6 232.3 56.3 232.6 56.8 232.7L61.9 231.7 58.1 236.8C58.1 237.1 58.1 237.3 58 237.6 58 237.8 58.2 238.3 58.4 238.6 59.1 238.9 59.9 239 60.2 238.3L64 233.2 64.7 238.3C64.9 239 65.6 239.3 66.1 239.4 66.9 239.2 67.2 238.5 67.3 237.8L66 230.4 71 223.4 73.7 240.4C73.9 241.2 74.6 241.8 75.1 241.6 75.9 241.4 76.4 241 76.3 240.2Z" fill="rgba(51, 121, 194, 0.58)"></path><path d="M101.6 493.1L96 486.5 101.1 485.3C101.7 485.3 102.2 484.6 102.2 483.9 101.9 483.2 101.2 482.7 100.6 483L94.1 484.2 89.5 479.2 103 476.8C103.7 476.5 104.1 475.8 104.1 475.3 103.8 474.4 103.2 473.9 102.6 474.3L87.7 477 80.9 469.2 92.8 468.3 84 460.2 94.1 458.2 104.2 469.5C104.1 469.8 104.3 469.9 104.6 469.9 105.1 470.1 105.6 470 106 469.6 106.4 469.2 106.4 468.5 106.1 467.8L97 457.6 103.7 456.5 108 461.4C108.2 461.7 108.4 461.8 108.7 461.9 108.9 462 109.5 461.9 109.9 461.5 110.3 461.1 110.3 460.3 109.9 459.9L106.5 455.9 115 454.1C115.8 454.1 116.1 453.4 116.1 452.6 116 452 115.4 451.5 114.5 451.8L106.1 453.3 107.8 448.4C108 447.7 107.5 447 107 446.8 106.3 446.6 105.7 446.9 105.4 447.6L103.2 454 96.5 455.1 100.9 442.4C101.1 441.7 100.8 441 100.1 440.8 99.7 440.6 98.8 440.8 98.5 441.6L93.7 455.7 83.5 457.7 88.5 447 77.3 450.6 80.7 440.7 95.4 437.8C96.2 437.6 96.5 436.9 96.4 436.3 96.3 435.8 95.7 435.3 94.9 435.3L81.6 438.1 83.8 431.7 90.3 430.3C91.1 430.3 91.6 429.7 91.3 428.8 91.3 428.3 90.6 427.8 89.8 428L84.7 428.9 87.6 420.7C87.8 420 87.5 419.3 86.8 419.1S85.4 419.2 85.2 419.9L82.4 428.1 78.9 424.3C78.4 423.6 77.6 423.6 77.2 424 76.5 424.5 76.5 425.3 77.1 425.8L81.4 430.9 79.2 437.3 70.4 426.9C69.8 426.4 69 426.4 68.6 426.8 67.9 427.3 67.9 428.1 68.5 428.6L78.3 439.9 74.9 449.8 68.3 440.1 65.6 451.6 58.9 443.7 63.7 429.6C63.9 428.9 63.4 428.2 62.9 428 62.2 427.8 61.6 428.1 61.4 428.8L56.9 441.7 52.4 436.5 54.6 430.1C54.8 429.4 54.5 428.8 53.8 428.5 53.3 428.4 52.5 428.6 52.2 429.3L50.5 434.3 44.8 427.8C44.3 427.1 43.5 427.1 43 427.7 42.6 428.1 42.4 428.8 43 429.3L48.6 436 43.5 437.1C42.9 437.2 42.5 437.8 42.5 438.4 42.6 438.9 43 439.3 43.2 439.4 43.5 439.5 43.7 439.6 44 439.4L50.5 438.2 55.1 443.2 41.6 445.7C41 446 40.5 446.6 40.6 447.2 40.6 447.7 41 448.1 41.5 448.3 41.7 448.4 41.7 448.4 42 448.2L57 445.4 63.7 453.3 51.8 454.2 60.7 462.2 50.5 464.3 40.4 452.9C40 452.5 39.3 452.3 38.6 452.8 38.2 453.2 38.2 454 38.5 454.6L47.6 464.9 40.9 466 36.6 461.1C36.3 460.4 35.5 460.4 34.8 461 34.4 461.3 34.4 462.1 34.7 462.8L38.1 466.6 29.6 468.4C28.8 468.4 28.6 469.1 28.5 469.9 28.7 470.2 29.1 470.6 29.3 470.7 29.6 470.7 29.8 470.8 30.1 470.7L38.6 469.1 36.9 474C36.6 474.7 37.2 475.5 37.6 475.6L37.6 475.6C38.3 475.9 39 475.6 39.2 474.9L41.4 468.5 48.1 467.4 43.7 480.1C43.5 480.8 43.8 481.4 44.5 481.7S45.8 481.6 46.1 480.9L50.9 466.8 61.1 464.7 56.1 475.4 67.3 471.9 63.9 481.8 49.3 484.6C48.4 484.9 48.2 485.6 48.2 486.1 48.3 486.7 48.9 487.1 49.7 487.1L63 484.6 60.9 490.7 54.3 492.1C53.5 492.1 53.1 492.8 53.3 493.6 53.4 494.2 54 494.7 54.8 494.7L59.9 493.5 57.1 501.8C56.8 502.5 57.1 503.1 57.8 503.4S59.2 503.3 59.4 502.6L62.2 494.3 65.7 498.2C65.8 498.5 66.1 498.6 66.3 498.6 66.8 498.8 67.1 498.6 67.4 498.5 68.1 497.9 68.1 497.2 67.5 496.7L63.2 491.5 65.4 485.2 74.2 495.6C74.4 495.6 74.7 495.7 74.9 495.8 75.4 496 75.7 495.8 76 495.7 76.7 495.1 76.7 494.3 76.1 493.8L66.3 482.6 69.7 472.7 76.4 482.4 79 470.9 85.8 478.7 80.9 492.9C80.7 493.6 81.2 494.3 81.7 494.4 82.4 494.7 83 494.4 83.3 493.7L87.6 481 92.2 486 90.1 492.3C89.8 493 90.1 493.7 90.8 493.9S92.2 493.8 92.4 493.1L94.1 488.2 99.8 494.6C99.9 494.9 100.2 495 100.4 495.1 100.7 495.2 101.2 495.1 101.6 494.7 102 494.3 102.2 493.6 101.6 493.1ZM75.2 476.4L69.8 468.5 60.6 471.4 64.7 462.6 57.7 456.2 67.2 455.3 69.4 446 74.8 453.9 84 451 80 459.6 86.9 466.2 77.5 466.9 75.2 476.4Z" fill="rgba(51, 121, 194, 0.58)"></path><path d="M16.5 365.8L20.3 353.5 23.4 351.7 30.1 355.9 30.1 359.6 20.6 368.3C20.5 368.4 20.5 368.4 20.4 368.6 20.2 368.8 20.2 369.2 20.5 369.6 20.9 369.8 21.3 369.8 21.6 369.5L29.9 361.8 29.7 367.4 26.1 370.9C26.1 370.9 26.1 371 26.1 371 25.9 371.3 25.9 371.6 26.2 372 26.4 372.3 26.9 372.3 27.3 371.9L29.7 369.8 29.6 373.9C29.5 374.2 29.8 374.6 30.3 374.7S31.1 374.3 31.2 373.8L31.3 369.9 33.6 372.2C33.9 372.6 34.4 372.5 34.8 372.2 35 372 35.1 371.5 34.8 371.1L31.3 367.5 31.6 361.8 39.3 370.1C39.6 370.4 40.1 370.4 40.4 370.2 40.7 369.8 40.8 369.4 40.5 369L31.7 359.6 31.8 355.9 38.6 352.3 41.8 354.2 44.8 366.7C44.9 367.2 45.3 367.4 45.7 367.3S46.4 366.8 46.3 366.4L43.7 355.4 48.5 358.4 49.6 363.1C49.7 363.6 50.1 363.8 50.7 363.8S51.4 363.3 51.3 362.9L50.4 359.6 54 361.8C54.3 362 54.9 361.8 55.1 361.4 55.4 361 55.3 360.6 54.9 360.3L51.3 358.1 54.5 357.4C55.1 357.4 55.3 357 55.1 356.4 55 356 54.6 355.8 54.2 355.9L49.4 357 44.6 353.9 55.6 351.5C56 351.4 56.4 350.8 56.3 350.4S55.8 349.7 55.3 349.8L42.7 352.8 39.5 350.8 39.9 342.9 43.1 341.3 55.4 345.1C55.8 345.2 56.2 344.9 56.5 344.5 56.6 344 56.3 343.6 55.9 343.4L45.1 340.1 50 337.5 54.7 339C55.2 339.1 55.6 338.8 55.9 338.4 55.9 338.1 55.7 337.6 55.2 337.4L52.1 336.5 55.7 334.5C56 334.3 56.1 333.8 56 333.4 55.7 333 55.2 332.9 55 333.1L51.3 335.1 52.3 331.8C52.3 331.5 52.1 330.9 51.7 330.9 51.3 330.7 51 330.8 50.8 331.2 50.8 331.2 50.7 331.4 50.7 331.4L49.2 336.1 44.3 338.7 47.5 327.9C47.7 327.5 47.6 327 47.1 326.9 46.6 326.8 46.3 327 46.1 327.2 46.1 327.4 46.1 327.4 46.1 327.4L42.3 339.9 39.1 341.5 32.3 337.3 32.5 333.8 42 324.8C42.3 324.6 42.2 324.1 42.1 323.8 41.7 323.4 41.2 323.4 40.8 323.7L32.5 331.4 32.7 325.8 36.3 322.4C36.7 322.1 36.8 321.6 36.4 321.4 36.1 321 35.5 321 35.2 321.2L32.9 323.6 33 319.4C32.9 319 32.6 318.6 32.1 318.5 31.9 318.6 31.6 318.8 31.5 319 31.4 319.2 31.4 319.2 31.4 319.4L31.3 323.5 28.9 321.1C28.6 320.7 28.2 320.8 27.9 321 27.8 321.1 27.8 321.1 27.7 321.3 27.5 321.5 27.5 321.9 27.7 322.2L31.1 325.8 30.9 331.3 23.3 323.1C22.9 322.8 22.4 322.7 22.1 323.1 21.9 323.2 21.9 323.2 21.8 323.3 21.7 323.6 21.8 324 22 324.3L30.9 333.7 30.7 337.3 23.8 341 20.8 339.1 17.8 326.5C17.7 326.1 17.2 325.7 16.8 325.8S16 326.5 16.1 326.9L18.8 337.9 14 334.9 12.8 330.1C12.7 329.7 12.3 329.5 11.9 329.6 11.5 329.7 11.2 330.1 11.3 330.5L12.1 333.7 8.5 331.5C8.2 331.3 7.7 331.3 7.4 331.7 7.2 332.1 7.3 332.8 7.6 332.9L11.2 335.2 7.9 335.9C7.7 336 7.5 336 7.4 336.1 7.3 336.4 7.3 336.6 7.4 336.8 7.5 337.3 7.9 337.5 8.3 337.4L13.1 336.4 17.9 339.3 6.8 341.8C6.6 341.9 6.5 342 6.4 342.3 6.3 342.4 6.2 342.5 6.3 342.7 6.4 343.2 6.9 343.5 7.3 343.4L19.9 340.6 22.9 342.5 22.7 350.2 19.5 352.1 7.1 348.2C6.7 348.2 6.3 348.3 6.1 348.5 6.1 348.7 6.1 348.7 6.2 348.7 5.9 349.1 6.2 349.6 6.7 349.8L17.5 353 12.5 355.7 7.7 354.3C7.4 354.2 7.1 354.4 6.9 354.7 6.9 354.7 6.8 354.8 6.8 354.8 6.6 355.2 6.8 355.7 7.3 355.8L10.5 356.8 6.9 358.7C6.7 358.8 6.6 358.9 6.6 359 6.4 359.3 6.4 359.6 6.5 359.7 6.7 360.2 7.2 360.4 7.6 360.3L11.2 358.3 10.3 361.3C10.1 361.8 10.4 362.3 10.9 362.4 11.2 362.5 11.7 362.2 11.7 361.9L13.2 357.1 18.2 354.5 14.9 365.3C14.8 365.8 15.1 366.2 15.5 366.4 15.9 366.5 16.4 366.2 16.5 365.8ZM30.2 354L25.1 350.8 24.3 350.3 24.3 349.4 24.5 343.5 24.6 342.4 25.4 342 30.6 339.2 31.4 338.8 32.2 339.3 37.4 342.5 38.2 343 38.2 343.9 38 349.8 37.9 350.7 37 351.3 31.8 354.1 31 354.5 30.2 354Z" fill="rgba(51, 121, 194, 0.58)"></path><path d="M263.2 156.5L269.4 161.3 264.6 163.5C264.1 163.7 263.8 164.4 263.9 165.2 264.4 165.7 265.1 166 265.6 165.9L271.9 163.1 277.7 167.6 264.7 173C263.9 173.4 263.6 174.1 264 174.7 264.2 175.5 264.9 175.8 265.7 175.4L280 169.3 285.3 173.2 283.4 188.3 278.1 190.7 265.1 180.6C264.8 180.6 264.6 180.5 264.3 180.5 264.1 180.5 263.6 180.7 263.3 180.9 262.7 181.6 262.9 182.3 263.6 182.7L275.5 191.9 268.9 194.6 262.7 190.1C262.7 189.8 262.5 189.8 262.2 189.8 261.7 189.7 261.2 189.9 260.9 190.4 260.6 190.8 260.7 191.6 261.2 192.1L266.3 195.8 258.1 199.3C257.5 199.5 257.2 200.2 257.4 201 257.8 201.5 258.5 201.9 259 201.7L266.7 198.3 266.1 203.5C266 204.3 266.7 204.8 267.2 204.9 267.9 205 268.7 204.6 268.8 203.8L269.6 197.2 276.2 194.5 274.5 208.3C274.4 209 274.9 209.6 275.6 209.7 276.3 209.8 276.9 209.3 277 208.6L278.8 193.3 284.4 190.7 296.6 199.9 295.9 205.6 281.4 211.9C280.6 212 280.2 213 280.7 213.5 280.8 214.3 281.6 214.4 282.3 214.3L295.5 208.6 294.7 215.7 288.1 218.5C287.6 218.6 287.2 219.6 287.4 220.1S288.5 221 289.3 220.9L294.3 218.7 293.3 227.4C293.2 228.1 293.9 228.7 294.6 228.8 295.1 228.8 295.9 228.4 296 227.7L297 219 301.7 222.3C302.1 222.7 302.9 222.7 303.4 222.1 303.8 221.6 303.6 220.6 303.2 220.3L297.4 216.1 298.3 208.9 309.8 217.6C310.5 217.9 311.2 218 311.8 217.3 312.1 216.8 312 215.8 311.5 215.5L298.6 205.9 299.3 200.3 313.3 194.2 318.1 198 316.3 213.3C316.2 214.1 316.6 214.6 317.4 214.7 318.1 214.8 318.9 214.4 319 213.7L320.7 199.8 326.4 204 325.6 210.7C325.5 211.4 326 212 326.7 212.1 327.4 212.2 328 211.7 328.1 211L328.7 205.8 335.4 210.9C335.8 211.2 336.9 211 337.2 210.6 337.5 209.9 337.6 209.1 336.9 208.8L330 203.5 335.6 201.1C336.1 200.7 336.4 200 336.3 199.4 336.1 198.9 335.6 198.6 335.1 198.6 335.1 198.6 334.9 198.5 334.6 198.7L327.5 201.6 321.7 197.4 335.5 191.3C336.2 191.2 336.6 190.5 336.2 189.7 336 189.4 335.7 189.1 335.2 189 335 189 334.8 189 334.5 189L319.4 195.7 314.8 192.1 316.6 177 322.7 174.5 335.1 183.8C335.8 184.3 336.6 184.2 336.9 183.5 337.5 183 337.3 182.3 336.6 181.7L325.4 173.3 332 170.3 337.5 174.5C338 174.8 338.7 174.7 339.3 174.2 339.6 173.5 339.7 172.8 339 172.4L334.9 169.2 342 166C342.8 165.9 342.9 165.1 342.7 164.4 342.5 164.1 342.1 163.8 341.6 163.7 341.6 163.7 341.3 163.7 341.1 163.7L333.4 167 334.1 160.8C334.2 160.3 333.8 159.5 333 159.4 332.3 159.4 331.7 160 331.7 160.5L330.7 168.2 324.1 171.2 325.9 156.1C326 155.3 325.3 154.8 324.6 154.7S323.3 155 323.2 155.8L321.2 172.3 315.7 174.6 303.5 165.4 304.3 159 319.1 152.7C319.6 152.3 320 151.6 319.8 150.8 319.6 150.6 319.1 150.2 318.6 150.2 318.4 150.2 318.1 150.1 317.9 150.3L304.6 156 305.5 148.9 312.1 145.9C312.6 145.7 313 145 312.8 144.2 312.4 143.7 311.7 143.3 311.2 143.5L305.9 145.9 306.8 138C306.9 137.5 306.2 136.7 305.7 136.6 305 136.5 304.1 137.2 304.1 137.7L303.1 145.6 298.8 142C298.6 142 298.3 142 298.1 141.9 297.6 141.9 297 142.1 296.8 142.3 296.4 143 296.6 143.8 297 144.3L302.8 148.5 301.9 155.7 290.4 147C289.7 146.5 289 146.6 288.7 147.1 288.1 147.8 288.2 148.5 288.7 149.1L301.6 158.7 300.8 165.1 286.8 171.2 281.9 167.6 283.9 151C284 150.3 283.6 149.7 282.8 149.6 282.1 149.5 281.5 150 281.5 150.7L279.6 165.8 273.9 161.3 274.8 153.7C274.9 153.2 274.2 152.4 273.5 152.3 272.8 152.2 272.2 152.9 272.1 153.4L271.4 159.5 264.7 154.5C264.5 154.4 264.5 154.4 264.2 154.4 263.7 154.4 263.2 154.5 262.9 154.8 262.6 155.5 262.7 156.2 263.2 156.5ZM300.4 168L302 167.5 303.1 168.4 313 175.8 314.2 176.7 314 178.2 312.5 190.3 312.4 191.8 311 192.4 299.7 197.3 298.3 197.9 296.9 197 287.3 189.5 285.9 188.6 286.1 187.1 287.6 175 287.7 173.5 289.3 173 300.4 168Z" fill="rgba(51, 121, 194, 0.58)"></path><path d="M182.8 60L190.5 61.6 187.1 65.6C186.7 66 186.7 66.8 187.2 67.4 187.8 67.7 188.6 67.7 189 67.4L193.6 62.2 200.6 63.7 191.3 74.2C190.7 74.9 190.7 75.7 191.4 76 191.8 76.6 192.6 76.6 193.2 75.9L203.5 64.4 209.9 65.6 214.7 80 211 84.4 194.8 80.9C194.6 81 194.4 81 194.1 81.1 193.9 81.2 193.5 81.6 193.3 81.9 193.1 82.8 193.6 83.4 194.4 83.4L209.1 86.6 204.3 91.9 196.7 90.5C196.6 90.3 196.4 90.3 196.2 90.4 195.7 90.6 195.3 91 195.2 91.5 195.1 92.1 195.6 92.7 196.3 93L202.4 94.1 196.5 100.8C196.1 101.2 196.1 102 196.6 102.6 197.2 102.9 198 102.9 198.4 102.5L203.9 96.2 205.5 101.2C205.8 101.9 206.6 102.1 207.1 102 207.8 101.7 208.4 101 208.1 100.3L206 93.9 210.8 88.7 215.2 101.9C215.5 102.6 216.1 102.9 216.8 102.7 217.5 102.4 217.8 101.8 217.6 101.1L212.7 86.5 216.6 81.7 231.6 84.9 233.4 90.3 222.9 102.2C222.3 102.7 222.4 103.7 223 104 223.5 104.6 224.2 104.4 224.8 103.9L234.3 93.1 236.6 100 231.8 105.3C231.4 105.7 231.5 106.7 231.9 107.1S233.3 107.4 234 106.9L237.6 102.8 240.3 111.1C240.6 111.8 241.4 112 242.2 111.8 242.6 111.6 243.2 110.9 242.9 110.2L240.2 101.9 245.8 103C246.3 103 247 102.8 247.3 101.9 247.3 101.4 246.8 100.5 246.2 100.4L239.2 99.1 236.9 92.3 251 95.2C251.8 95.2 252.5 94.9 252.8 94.1 252.8 93.5 252.3 92.6 251.7 92.6L236 89.4 234.2 84 244.2 72.5 250.2 73.9 255.1 88.6C255.4 89.3 256 89.6 256.7 89.3 257.4 89.1 258 88.4 257.7 87.7L253.3 74.5 260.3 75.8 262.4 82.2C262.7 82.9 263.3 83.2 264 83 264.7 82.7 265 82.1 264.8 81.4L263.1 76.4 271.3 78.2C271.9 78.2 272.7 77.7 272.8 77.1 272.8 76.3 272.6 75.6 271.8 75.6L263.3 73.8 267.3 69.3C267.6 68.6 267.6 67.8 267.2 67.5 266.8 67.1 266.3 67 265.8 67.1 265.8 67.1 265.6 67.2 265.4 67.5L260.2 73.2 253.2 71.9 263 60.4C263.7 60 263.7 59.2 263 58.6 262.7 58.5 262.3 58.3 261.9 58.5 261.6 58.6 261.4 58.6 261.2 58.7L250.4 71.2 244.7 70 239.9 55.6 244.3 50.7 259.5 53.8C260.4 54 261 53.5 261 52.7 261.3 52.1 260.8 51.5 260 51.2L246.2 48.5 250.9 43 257.7 44.4C258.2 44.5 258.9 44 259.2 43.4 259.2 42.6 258.9 41.9 258.2 41.9L253 40.7 258.1 34.8C258.8 34.3 258.5 33.6 258.1 33 257.8 32.8 257.2 32.7 256.7 32.9 256.7 32.9 256.5 33 256.3 33.1L250.8 39.4 248.8 33.5C248.6 33 247.9 32.4 247.2 32.7 246.5 32.9 246.3 33.8 246.4 34.3L248.9 41.6 244.1 47.1 239.3 32.7C239.1 32 238.2 31.7 237.5 32S236.5 32.8 236.7 33.6L242 49.4 238 53.9 223.1 50.7 221 44.6 231.7 32.6C232 32 232 31.2 231.5 30.6 231.2 30.4 230.7 30.3 230.2 30.5 230 30.6 229.7 30.6 229.6 31L220.1 41.8 217.8 34.9 222.5 29.4C222.9 29 222.9 28.2 222.4 27.6 221.8 27.3 221 27.3 220.6 27.7L216.8 32.1 214.3 24.5C214.1 24 213.2 23.6 212.7 23.7 212 24 211.5 24.9 211.7 25.4L214.2 32.9 208.8 31.6C208.6 31.7 208.3 31.8 208.1 31.8 207.6 32 207.2 32.4 207.1 32.7 207.1 33.5 207.5 34.1 208.2 34.4L215.2 35.8 217.5 42.6 203.4 39.7C202.5 39.5 201.9 40 201.8 40.5 201.6 41.4 202 42 202.7 42.3L218.4 45.5 220.5 51.6 210.4 63.1 204.5 61.9 199.2 46.1C199 45.4 198.3 45.1 197.6 45.3 196.9 45.5 196.6 46.2 196.8 46.9L201.7 61.3 194.6 59.7 192.1 52.4C192 51.9 191 51.5 190.3 51.7 189.6 51.9 189.4 52.8 189.5 53.3L191.5 59.2 183.3 57.4C183.1 57.5 183.1 57.5 182.8 57.6 182.4 57.8 182 58.2 181.8 58.5 181.8 59.3 182.3 59.9 182.8 60ZM221.4 54.4L222.6 53.2 224 53.6 236.1 56.1 237.5 56.4 238 57.8 241.9 69.4 242.4 70.8 241.4 71.9 233.2 81.2 232.3 82.3 230.6 82 218.7 79.5 217.1 79.2 216.6 77.8 212.8 66.2 212.3 64.8 213.5 63.6 221.4 54.4Z" fill="rgba(51, 121, 194, 0.58)"></path><path d="M105.1 313.4L108.9 322.7 107.4 326 106.1 322.9C106.1 322.5 105.7 322.4 105.3 322.4 105.1 322.6 104.9 323 105 323.2L106.7 327.5 105.3 330.8 103.2 328 103.9 323.4C103.9 323.4 103.9 323.2 103.9 323.2 103.9 323 103.6 322.8 103.3 322.7 103 322.7 102.7 322.9 102.7 323.3L102.2 326.6 100.1 323.7 101.4 313.9C101.4 313.9 101.5 313.8 101.5 313.8 101.5 313.5 101.2 313.3 101 313.2 100.6 313.1 100.2 313.4 100.3 313.8L99 322.3 96.4 318.9 96.9 315.1C96.9 315.1 96.9 315.1 96.9 314.9 96.9 314.7 96.7 314.5 96.5 314.4 96.1 314.4 95.7 314.6 95.7 315L95.3 317.5 93.4 315C93.2 314.6 92.9 314.7 92.6 314.8 92.3 315 92.2 315.4 92.5 315.7L94.3 318.3 91.9 317.8C91.5 317.8 91.1 318 91.2 318.4 91.1 318.8 91.3 319 91.6 319.1L95.5 319.6 98 323.1 89.3 321.9C89.1 321.8 88.7 322 88.7 322.4 88.7 322.7 88.9 323 89.2 323.1L99 324.5 101.1 327.3 97.8 326.9C97.4 326.8 97.2 327 97.1 327.4 97.1 327.7 97.3 328 97.6 328.1L102.2 328.7 104.4 331.6 100.8 332 97.2 329.2C97 329 96.6 329 96.4 329.3 96.1 329.4 96.2 329.9 96.5 330.1L99.1 332.2 95.5 332.6 87.8 326.4C87.5 326.2 87.1 326.3 86.9 326.5 86.7 326.8 86.7 327.2 87 327.4L93.8 332.9 89.6 333.4 86.5 331C86.3 330.7 85.9 330.8 85.7 331.1 85.5 331.3 85.5 331.7 85.8 331.9L87.7 333.6 84.6 333.9C84.3 334 84.1 334.3 84.1 334.6 84.1 335 84.4 335.2 84.8 335.2L87.9 334.8 86.4 336.7C86.1 337 86.2 337.4 86.5 337.6S87.1 337.8 87.3 337.5L89.6 334.6 93.9 334.1 88.6 340.9C88.4 341.1 88.4 341.5 88.7 341.7 89 341.9 89.4 341.9 89.6 341.6L95.7 333.9 99.2 333.5 97.2 336.1C97 336.4 97 336.7 97.3 336.9 97.6 337.2 97.9 337.1 98.1 336.8L101 333.2 104.4 332.8 103.1 336 98.8 337.8C98.5 337.9 98.3 338.3 98.5 338.6 98.6 338.9 98.9 339 99.3 339L102.4 337.7 101 340.9 91.8 344.6C91.5 344.8 91.4 345 91.4 345.4 91.6 345.8 92 345.9 92.2 345.8L100.3 342.6 98.6 346.6 95.1 348C94.7 348 94.6 348.4 94.7 348.8 94.8 349 95.2 349.2 95.6 349.1L97.9 348.2 96.7 351C96.5 351.3 96.7 351.7 97.1 351.9 97.3 352 97.7 351.8 97.8 351.5L99.1 348.6 100 351C100.1 351.4 100.5 351.5 100.8 351.3 101.1 351.3 101.2 351 101.2 350.8 101.2 350.6 101.2 350.6 101.2 350.5L99.7 347.1 101.5 343.1 104.7 351.1C104.8 351.5 105.2 351.5 105.5 351.5 105.8 351.3 105.9 351.1 105.8 350.8 105.8 350.7 105.8 350.7 105.8 350.7L102.2 341.4 103.6 338.2 104.8 341.3C105 341.7 105.3 341.8 105.6 341.7 105.9 341.6 106.1 341.3 106 341 106 340.9 106 340.9 106 340.8L104.2 336.5 105.6 333.3 107.7 336.1 107.1 340.7C107 341 107.3 341.4 107.6 341.5 108 341.4 108.3 341.3 108.3 340.9L108.8 337.6 111 340.3 109.5 350.3C109.4 350.5 109.7 350.9 110 351 110.4 350.9 110.7 350.8 110.8 350.4L112 341.8 114.6 345.3 114 349C113.9 349.4 114.2 349.7 114.6 349.7 114.9 349.8 115.2 349.6 115.3 349.2L115.6 346.7 117.5 349.2C117.7 349.4 118.1 349.5 118.4 349.3 118.5 349.2 118.6 348.9 118.6 348.7 118.6 348.7 118.6 348.6 118.6 348.4L116.7 345.9 119.2 346.2C119.5 346.3 119.8 346 119.9 345.8 119.9 345.7 119.9 345.7 119.9 345.7 119.8 345.3 119.6 345.1 119.3 345.1L115.6 344.5 112.9 341.1 121.6 342.3C122 342.3 122.2 342.1 122.3 341.7 122.3 341.7 122.3 341.6 122.3 341.6 122.2 341.4 122.1 341.1 121.7 341L111.9 339.6 109.8 336.8 113.1 337.3C113.5 337.3 113.8 337.1 113.8 336.7 113.9 336.7 113.9 336.6 113.9 336.6 113.9 336.3 113.6 336.1 113.3 336L108.8 335.4 106.7 332.6 110.1 332.2 113.7 335C114 335.2 114.5 335.1 114.7 334.9 114.8 334.6 114.8 334.2 114.6 334L111.8 331.9 115.4 331.5 123.2 337.6C123.5 337.8 123.8 337.8 124 337.5 124.3 337.2 124.2 336.9 123.9 336.6L117.2 331.3 121.5 330.8 124.4 333.1C124.7 333.3 125 333.3 125.3 333S125.4 332.3 125.2 332.1L123.2 330.6 126.3 330.2C126.7 330.2 126.9 329.9 126.9 329.5 126.8 329.2 126.5 328.9 126.2 329L123.1 329.4 124.6 327.3C124.7 327.2 124.8 327 124.8 326.9 124.8 326.8 124.6 326.5 124.5 326.4 124.2 326.2 123.8 326.3 123.6 326.5L121.3 329.6 117 330.1 122.3 323.2C122.4 323 122.6 322.9 122.5 322.8 122.5 322.7 122.4 322.4 122.2 322.3 122 322.1 121.6 322.1 121.4 322.4L115.3 330.3 111.7 330.7 113.9 328.1C114 327.9 114 327.7 114 327.6 113.9 327.4 113.9 327.3 113.8 327.2 113.5 327 113 327 112.9 327.3L110 330.9 106.5 331.3 107.9 328 112.2 326.4C112.4 326.2 112.6 326 112.6 325.7 112.6 325.6 112.6 325.6 112.5 325.6 112.4 325.2 112 325 111.7 325.2L108.6 326.4 109.9 323.2 119.3 319.5C119.5 319.4 119.6 319.1 119.6 318.9 119.5 318.7 119.5 318.7 119.5 318.7 119.4 318.4 119.1 318.2 118.7 318.3L110.6 321.6 112.4 317.6 115.9 316.2C116.2 316 116.3 315.7 116.3 315.5 116.3 315.5 116.3 315.4 116.3 315.4 116.1 315 115.7 314.9 115.5 315L113.1 316 114.4 313.1C114.3 313 114.3 312.9 114.3 312.7 114.3 312.6 114.1 312.4 114 312.3 113.6 312.2 113.3 312.2 113.2 312.6L111.9 315.5 111 313.1C110.8 312.8 110.4 312.7 110.2 312.7 109.8 312.9 109.7 313.3 109.8 313.6L111.2 317.1 109.5 321.1 106.3 313.1C106.2 312.7 105.8 312.5 105.5 312.6 105.2 312.8 105 313.1 105.1 313.4Z" fill="rgba(51, 121, 194, 0.58)"></path><path d="M2.9 68.9L4.6 72.4 2 72.3C1.7 72.3 1.4 72.5 1.3 72.9 1.4 73.3 1.6 73.6 1.9 73.6L5.3 73.8 6.9 77.1-0.1 76.6C-0.6 76.6-0.9 76.8-0.8 77.2-0.9 77.6-0.7 77.9-0.2 77.9L7.5 78.4 9 81.3 4.8 87.7 1.9 87.5-1.7 80.1C-1.8 80-1.9 79.9-2 79.8-2.1 79.8-2.4 79.7-2.5 79.8-3 80-3.1 80.3-2.8 80.6L0.4 87.4-3.1 87.2-4.9 83.7C-4.8 83.6-4.9 83.6-5 83.5-5.2 83.4-5.5 83.3-5.7 83.5-6 83.6-6.1 84-6 84.3L-4.6 87.1-9 86.8C-9.3 86.8-9.6 87-9.7 87.4-9.7 87.7-9.4 88.1-9.1 88.1L-5 88.3-6.4 90.5C-6.6 90.8-6.4 91.2-6.2 91.4-5.9 91.6-5.5 91.6-5.3 91.3L-3.4 88.5 0.1 88.8-3.7 94.6C-3.9 94.9-3.9 95.2-3.5 95.4-3.2 95.6-2.9 95.6-2.7 95.2L1.6 88.8 4.7 88.9 8 95.8 6.4 98.2-1.5 97.7C-1.9 97.6-2.2 97.9-2.2 98.3-2.3 98.7-2 98.9-1.6 99L5.6 99.4 3.6 102.4 0 102.1C-0.2 102.1-0.6 102.5-0.7 102.7S-0.3 103.4 0 103.5L2.8 103.7 0.3 107.3C0.1 107.6 0.3 108 0.6 108.2 0.8 108.4 1.3 108.4 1.5 108L3.9 104.4 5.2 106.9C5.3 107.2 5.7 107.4 6.1 107.2 6.3 107.1 6.5 106.6 6.3 106.4L4.7 103.2 6.7 100.2 9.9 106.6C10.1 107 10.5 107.2 10.9 107 11.1 106.8 11.3 106.4 11.1 106.1L7.6 98.9 9.2 96.6 16.8 97 18.1 99.8 13.8 106.2C13.6 106.5 13.6 106.9 13.9 107.1 14.3 107.3 14.7 107.3 14.9 107L18.8 101.2 20.4 104.4 18.5 107.2C18.3 107.5 18.4 107.8 18.7 108 19 108.2 19.4 108.2 19.6 107.9L21 105.7 22.8 109.4C23 109.7 23.5 109.9 23.7 109.7 24 109.5 24.2 109.2 24 108.9L22.1 104.9 25.1 105.1C25.5 105.1 25.8 104.8 25.8 104.5 25.9 104.3 25.7 104 25.5 103.9 25.5 103.9 25.4 103.8 25.2 103.9L21.4 103.5 19.8 100.4 27.3 100.7C27.7 100.9 28 100.6 28 100.2 28 100 27.9 99.8 27.7 99.7 27.6 99.6 27.5 99.5 27.4 99.5L19.2 99.1 17.9 96.4 22.1 90.1 25.4 90.4 28.9 97.3C29 97.7 29.4 97.8 29.7 97.6 30.1 97.5 30.2 97.1 30 96.7L26.9 90.4 30.5 90.6 32 93.7C32.1 94 32.5 94.1 32.9 94 33.2 93.7 33.4 93.4 33.1 93.1L32 90.7 35.9 91C36.3 91.1 36.5 90.7 36.6 90.4 36.6 90.2 36.5 90 36.3 89.8 36.3 89.8 36.1 89.7 36 89.7L31.9 89.4 33.6 86.8C33.7 86.6 33.7 86.2 33.4 86 33.1 85.8 32.7 85.9 32.6 86.2L30.4 89.4 26.8 89.2 31 82.9C31.2 82.6 31 82.1 30.7 81.9S30.1 81.8 29.9 82.1L25.2 89 22.2 88.8 18.9 82 20.7 79.3 28.7 79.8C29 79.8 29.4 79.5 29.5 79.1 29.4 79 29.3 78.7 29.1 78.6 29 78.5 28.9 78.5 28.7 78.5L21.5 78 23.5 75 27.1 75.2C27.4 75.2 27.7 75 27.8 74.6 27.8 74.3 27.5 74 27.3 73.9L24.4 73.8 26.6 70.5C26.7 70.3 26.6 69.8 26.4 69.6 26.1 69.4 25.6 69.5 25.4 69.7L23.2 73 22.1 70.5C22 70.4 21.9 70.3 21.8 70.3 21.6 70.1 21.3 70.1 21.1 70.1 20.8 70.4 20.7 70.8 20.8 71.1L22.4 74.3 20.4 77.3 17.2 70.8C17 70.4 16.7 70.3 16.4 70.4 16 70.6 15.9 71 16 71.3L19.6 78.5 17.8 81.2 10.1 80.8 8.8 78.1 13.4 71.1C13.6 70.8 13.6 70.5 13.2 70.3 12.9 70.1 12.6 70.1 12.4 70.4L8.2 76.7 6.6 73.5 8.8 70.3C8.9 70.1 8.8 69.5 8.5 69.3 8.2 69.1 7.8 69.3 7.6 69.5L5.9 72.1 4.1 68.3C4 68.3 4 68.3 3.9 68.2 3.6 68 3.4 68 3.2 68 2.9 68.3 2.8 68.7 2.9 68.9ZM16.9 82.4L17.8 82.6 18.1 83.2 20.8 88.8 21.1 89.4 20.7 90 17.3 95.1 16.9 95.7 16.2 95.7 10 95.3 9.3 95.3 8.8 94.6 6.2 89.1 5.8 88.3 6.2 87.7 9.6 82.7 10 82 10.9 82.1 16.9 82.4Z" fill="rgba(51, 121, 194, 0.58)"></path><path d="M309 423L305.7 425.8 305.1 423.2C305.1 423 304.7 422.7 304.4 422.7 304 422.9 303.8 423.2 304 423.5L304.6 426.7 302.1 429 300.8 422.3C300.7 422 300.3 421.8 300.1 421.8 299.6 421.9 299.4 422.2 299.6 422.5L301 430 297 433.4 296.6 427.4 292.6 431.9 291.5 426.8 297.2 421.7C297.3 421.8 297.4 421.7 297.4 421.5 297.5 421.3 297.4 421 297.2 420.8 297 420.6 296.7 420.6 296.3 420.8L291.2 425.4 290.7 422 293.1 419.8C293.3 419.7 293.3 419.6 293.4 419.5 293.4 419.4 293.4 419.1 293.2 418.9 293 418.7 292.6 418.7 292.4 418.9L290.4 420.6 289.4 416.3C289.4 415.9 289.1 415.8 288.7 415.8 288.4 415.9 288.2 416.2 288.3 416.6L289.1 420.8 286.6 420C286.3 419.9 285.9 420.1 285.8 420.4 285.7 420.7 285.9 421 286.2 421.2L289.4 422.2 290 425.6 283.6 423.4C283.3 423.3 282.9 423.5 282.8 423.8 282.7 424 282.9 424.5 283.2 424.6L290.3 427 291.3 432.1 286 429.6 287.7 435.2 282.8 433.5 281.3 426.2C281.2 425.8 280.9 425.6 280.6 425.7 280.3 425.7 280.1 426 280.1 426.4L281.5 433.1 278.3 432 277.6 428.7C277.6 428.3 277.3 428.1 276.9 428.2 276.6 428.3 276.3 428.6 276.5 429L276.9 431.5 272.8 430.1C272.4 430 272.1 430.2 272 430.5S272 431.2 272.4 431.3L276.5 432.7 274.6 434.4C274.3 434.7 274.3 435.1 274.4 435.3 274.7 435.6 275.1 435.6 275.4 435.3L277.9 433.2 281.1 434.3 275.9 438.7C275.7 439 275.7 439.4 275.9 439.6 276.2 439.9 276.5 439.9 276.8 439.6L282.4 434.7 287.3 436.4 282.5 439.7 288.3 441 284.3 444.4 277.3 442C276.9 441.9 276.6 442.2 276.5 442.4 276.4 442.8 276.5 443.1 276.9 443.2L283.4 445.4 280.7 447.7 277.6 446.6C277.2 446.5 276.9 446.6 276.8 447 276.7 447.2 276.8 447.7 277.2 447.8L279.6 448.6 276.4 451.5C276.1 451.8 276.1 452.1 276.4 452.4 276.6 452.6 276.9 452.7 277.2 452.4L280.5 449.6 281.1 452.1C281.1 452.4 281.4 452.6 281.7 452.6 282 452.6 282.2 452.4 282.2 452.3 282.3 452.1 282.3 452 282.2 451.9L281.6 448.6 284.1 446.3 285.4 453.1C285.5 453.4 285.8 453.6 286.1 453.6 286.4 453.5 286.6 453.3 286.7 453.1 286.7 453 286.7 453 286.6 452.8L285.2 445.4 289.1 442 289.6 447.9 293.6 443.5 294.6 448.6 289 453.6C288.8 453.8 288.7 454.2 288.9 454.5 289.1 454.7 289.5 454.7 289.8 454.6L294.9 450 295.5 453.4 293.1 455.6C292.7 455.7 292.7 456.1 293 456.5 293.2 456.7 293.6 456.7 293.9 456.5L295.8 454.8 296.7 459C296.7 459.4 297.1 459.6 297.5 459.6 297.6 459.5 297.8 459.3 297.9 459.2 297.9 459 298 458.9 297.9 458.8L297.1 454.6 299.6 455.4C299.9 455.5 300.3 455.2 300.3 455L300.3 455C300.5 454.7 300.3 454.3 300 454.2L296.8 453.1 296.2 449.8 302.6 451.9C302.9 452.1 303.2 451.9 303.4 451.6S303.3 450.9 303 450.8L295.9 448.4 294.9 443.3 300.2 445.8 298.4 440.2 303.4 441.8 304.8 449.2C304.9 449.6 305.3 449.7 305.6 449.7 305.8 449.6 306.1 449.3 306.1 448.9L304.8 442.3 307.8 443.4 308.6 446.6C308.6 447 308.9 447.3 309.3 447.1 309.6 447.1 309.8 446.8 309.8 446.4L309.3 443.8 313.4 445.2C313.7 445.4 314.1 445.2 314.2 444.9S314.1 444.2 313.8 444.1L309.7 442.7 311.6 440.9C311.7 440.9 311.8 440.7 311.8 440.6 311.9 440.4 311.8 440.2 311.7 440.1 311.5 439.7 311.1 439.7 310.8 440L308.2 442.2 305.1 441.1 310.2 436.7C310.3 436.6 310.3 436.5 310.4 436.3 310.5 436.1 310.4 435.9 310.3 435.8 310 435.4 309.6 435.4 309.4 435.7L303.8 440.7 298.8 439 303.6 435.6 297.9 434.3 301.8 430.9 308.9 433.3C309.2 433.5 309.6 433.2 309.7 432.9 309.8 432.6 309.6 432.3 309.3 432.2L302.9 430 305.4 427.7 308.6 428.8C309 428.9 309.3 428.7 309.4 428.4S309.4 427.7 309 427.6L306.5 426.7 309.7 423.9C309.9 423.8 309.9 423.7 310 423.6 310 423.5 310 423.2 309.8 423 309.6 422.8 309.2 422.7 309 423ZM300.7 436.2L296.7 438.9 298.2 443.5 293.8 441.5 290.6 445 290.1 440.2 285.5 439.2 289.4 436.4 288 431.9 292.3 433.9 295.6 430.4 295.9 435.1 300.7 436.2Z" fill="rgba(51, 121, 194, 0.58)"></path><path d="M226.2 362.1L218.2 343.1 225.2 326.1 236.4 340.6 233.6 361.1C233.6 361.1 233.6 361.3 233.6 361.3 233.7 361.8 234.3 362.3 234.8 362.4 235.6 362.6 236.2 362 236.1 361.3L238.5 343.4 244 350.4 243 358.3C243 358.3 243.1 358.6 243.1 358.6 243.1 359.1 243.7 359.5 244.2 359.7 245 359.8 245.7 359.2 245.6 358.5L246.3 353.1 250.3 358.4C250.6 358.8 251.6 359 252.1 358.6 252.8 358.3 252.7 357.3 252.4 356.9L248.4 351.6 253.8 352.4C254.6 352.5 255.2 352 255.1 351.2 255.3 350.4 254.7 349.8 254 349.9L246 348.9 240.8 341.8 258.7 344.2C259.5 344.4 260.2 343.8 260.1 343 260.2 342.3 259.6 341.6 258.9 341.7L238.4 338.9 227.2 324.3 245.7 321.8 262.2 334.5C262.8 334.9 263.5 334.8 263.9 334.2 264.4 333.7 264.3 332.9 263.7 332.5L249.2 321.4 258.1 320.2 264.2 324.9C264.8 325.3 265.5 325.2 265.9 324.7 266.4 324.1 266.3 323.4 265.7 322.9L261.5 319.7 268.4 318.8C269.2 319 269.6 318.2 269.5 317.4 269.4 316.7 268.8 316.3 268.1 316.4L261.7 317.2 264.9 313C265.3 312.5 265.2 311.7 264.7 311.3S263.4 311 262.9 311.5L258.2 317.7 249.3 318.8 260.5 304.3C260.9 303.7 260.8 303 260.2 302.6 259.7 302.2 258.9 302.3 258.5 302.8L245.9 319.3 227.6 321.7 234.7 304.7 253.2 297C253.9 296.6 254.1 295.9 254 295.1 253.6 294.4 252.9 294.3 252.1 294.4L235.5 301.3 238.9 293.1 246.3 290.1C247 289.8 247.1 289 247 288.3 246.7 287.6 245.9 287.4 245.4 287.5L240.4 289.6 242.9 283.5C243.1 283 243 282 242.2 281.9 241.4 281.7 240.7 281.8 240.5 282.6L238.1 288.7 235.9 283.7C235.5 283 234.8 282.9 234.3 282.9 233.8 283.2 233.4 283.8 233.5 284.3 233.5 284.3 233.5 284.5 233.5 284.5L236.5 291.9 233.1 300.2 226.1 283.5C225.7 282.8 225 282.7 224.5 282.7 224 283 223.6 283.6 223.6 284.1 223.6 284.1 223.7 284.3 223.7 284.3L231.7 303.3 224.7 320.3 213.5 305.8 216.3 285.3C216.4 284.5 215.8 283.9 215.1 284 214.3 283.8 213.6 284.4 213.7 285.1L211.3 303 205.9 296 206.8 288.1C207 287.3 206.4 286.6 205.7 286.7 204.9 286.6 204.2 287.2 204.3 287.9L203.5 293.3 199.6 288C199.2 287.6 198.2 287.5 197.8 287.8 197.3 288.1 197.1 288.6 197.2 289.1 197.2 289.3 197.3 289.6 197.5 289.8L201.5 295.1 196.1 294.3C195.3 294.1 194.7 294.7 194.8 295.4 194.8 295.4 194.8 295.7 194.8 295.7 194.9 296.2 195.4 296.6 196 296.8L203.9 297.8 209.3 304.8 191.4 302.4C190.7 302.3 190 302.9 190.1 303.6 190.1 303.6 190.1 303.8 190.1 303.8 190.2 304.3 190.7 304.8 191.3 304.9L211.7 307.8 222.9 322.3 204.7 324.8 188.2 312.1C187.6 311.7 186.9 311.8 186.5 312.4 186 312.9 186.1 313.7 186.7 314.1L201 325.2 192.1 326.4 185.9 321.7C185.4 321.3 184.6 321.4 184.2 321.9S183.9 323.2 184.4 323.7L188.6 326.9 182.2 327.7C181.5 327.8 181.1 328.4 181.2 329.1 181.3 329.9 181.8 330.3 182.6 330.2L189 329.4 185.8 333.5C185.5 333.8 185.3 334.1 185.4 334.6S185.7 335.3 186 335.5C186.6 335.9 187.3 335.8 187.7 335.3L192.5 329.1 201.3 328 190.2 342.5C190 342.8 189.8 343.1 189.8 343.5 189.9 343.8 190.2 344.3 190.5 344.5 191 344.9 191.8 344.8 192.2 344.2L204.8 327.8 223.1 325.3 216 342.3 197 350.4C196.6 350.7 196.1 351.2 196.2 351.7 196.2 351.7 196.2 352 196.2 352 196.6 352.7 197.4 352.8 197.8 352.8L214.5 345.8 211.1 354 203.7 357C203.2 357.3 202.8 357.9 202.9 358.4 202.9 358.4 202.9 358.6 202.9 358.6 203.2 359.3 204 359.5 204.5 359.4L209.5 357.3 207 363.4C207.1 363.6 206.9 363.9 206.9 364.1 207 364.6 207.3 365.1 207.8 365.3 208.6 365.4 209.3 365.3 209.5 364.5L211.9 358.4 214.1 363.4C214.4 364.1 215.2 364.3 215.7 364.2 216.4 363.9 216.5 363.1 216.5 362.6L213.5 355.2 216.9 347 223.9 363.6C224.2 364.3 225 364.5 225.5 364.4 226.1 363.6 226.5 362.8 226.2 362.1Z" fill="rgba(51, 121, 194, 0.58)"></path></g><defs><mask id="SvgjsMask1026"><rect width="360" height="560" fill="#ffffff"></rect></mask><linearGradient x1="-13.89%" y1="8.93%" x2="113.89%" y2="91.07%" gradientUnits="userSpaceOnUse" id="SvgjsLinearGradient1027"><stop stop-color="#0e2a47" offset="0"></stop><stop stop-color="rgba(158, 85, 0, 1)" offset="1"></stop></linearGradient><filter id="SvgjsFilter1028"><feGaussianBlur stdDeviation="1"></feGaussianBlur></filter></defs></svg>